<?xml version="1.0" encoding="utf-8"?>
<!-- Generator: Adobe Illustrator 16.0.0, SVG Export Plug-In . SVG Version: 6.00 Build 0)  -->
<!DOCTYPE svg PUBLIC "-//W3C//DTD SVG 1.1//EN" "http://www.w3.org/Graphics/SVG/1.1/DTD/svg11.dtd">
<svg version="1.1" id="Layer_1" xmlns="http://www.w3.org/2000/svg" xmlns:xlink="http://www.w3.org/1999/xlink" x="0px" y="0px"
	 width="960px" height="560px" viewBox="0 0 960 560" enable-background="new 0 0 960 560" xml:space="preserve">
<path fill="#FFFFFF" stroke="#2319DC" stroke-width="2" stroke-miterlimit="10" d="M300.8,295.12
	c60.9-13.091,52.5-85.926,50.75-101.851c-2.975-24.5-31.85-67.375-70.979-63.944c-49.28,4.375-56.42,75.6-56.42,75.6
	C217.43,237.825,240.04,308.175,300.8,295.12 M413.85,173.04c33.6,0,60.725-38.71,60.725-86.556C474.575,38.675,447.45,0,413.85,0
	c-33.601,0-60.9,38.64-60.9,86.45C352.95,134.33,380.25,173.04,413.85,173.04 M558.68,178.745
	c44.975,5.88,73.78-42.105,79.555-78.471c5.95-36.295-23.1-78.505-54.95-85.75c-31.85-7.35-71.68,43.75-75.25,77
	c-4.41,40.811,5.74,81.445,50.681,87.221 M736.865,239.82c0-17.395-14.455-69.824-68.04-69.824c-53.725,0-60.83,49.489-60.83,84.42
	c0,33.319,2.8,79.8,69.511,78.399c66.604-1.47,59.324-75.529,59.324-93.029 M668.825,392.385c0,0-69.545-53.76-110.109-111.896
	c-55.091-85.75-133.28-50.819-159.426-7.279c-26.04,43.68-66.64,71.26-72.38,78.54c-5.845,7.21-84,49.42-66.64,126.489
	c17.359,77,78.295,75.601,78.295,75.601s44.87,4.34,96.95-7.28c52.15-11.62,97.055,2.8,97.055,2.8s121.695,40.845,154.98-37.695
	c33.319-78.505-18.76-119.244-18.76-119.244"/>
</svg>
