<?xml version="1.0" encoding="utf-8"?>
<!-- Generator: Adobe Illustrator 16.0.0, SVG Export Plug-In . SVG Version: 6.00 Build 0)  -->
<!DOCTYPE svg PUBLIC "-//W3C//DTD SVG 1.1//EN" "http://www.w3.org/Graphics/SVG/1.1/DTD/svg11.dtd">
<svg version="1.1" id="Layer_1" xmlns="http://www.w3.org/2000/svg" xmlns:xlink="http://www.w3.org/1999/xlink" x="0px" y="0px"
	 width="960px" height="560px" viewBox="0 0 960 560" enable-background="new 0 0 960 560" xml:space="preserve">
<g id="Layer_1_1_">
	<g id="XMLID_1_">
		<path fill="none" stroke="#3B5998" stroke-width="2" stroke-miterlimit="10" d="M586.4,560H230.91
			c-17.08,0-30.91-13.83-30.91-30.91V30.9C200,13.83,213.83,0,230.91,0h498.189C746.179,0,760,13.83,760,30.9v498.19
			C760,546.17,746.18,560,729.1,560H586.4z"/>
	</g>
</g>
<g id="Layer_2">
	<path fill="#FFFFFF" stroke="#3B5998" stroke-width="2" stroke-miterlimit="10" d="M525.415,538.924v-2.049V309.854h76.884
		l11.463-89.304h-88.347v-56.925c0-25.875,7.214-43.47,44.178-43.47h47.313V40.314c-8.172-1.108-36.223-3.475-68.867-3.475
		c-68.163,0-114.811,41.547-114.811,117.925v65.898h-77.106v89.23h77.106v226.979v2.053H525.415z"/>
	<path fill="#FFFFFF" stroke="#3B5998" stroke-width="2" stroke-miterlimit="10" d="M676.122-52.497"/>
</g>
</svg>
