<?xml version="1.0" encoding="utf-8"?>
<!-- Generator: Adobe Illustrator 16.0.0, SVG Export Plug-In . SVG Version: 6.00 Build 0)  -->
<!DOCTYPE svg PUBLIC "-//W3C//DTD SVG 1.1//EN" "http://www.w3.org/Graphics/SVG/1.1/DTD/svg11.dtd">
<svg version="1.1" id="Layer_1" xmlns="http://www.w3.org/2000/svg" xmlns:xlink="http://www.w3.org/1999/xlink" x="0px" y="0px"
	 width="960px" height="560px" viewBox="0 0 960 560" enable-background="new 0 0 960 560" xml:space="preserve">
<g>
	<path d="M758,2v556H202V2H758 M760,0H200v560h560V0L760,0z"/>
</g>
<path fill="#FFFFFF" stroke="#000000" stroke-width="2" stroke-miterlimit="10" d="M480,2.731c-153.153,0-277.2,124.116-277.2,277.2
	c0,122.487,79.42,226.366,189.536,262.991c13.86,2.599,18.955-5.959,18.955-13.34c0-6.584-0.243-24.013-0.349-47.127
	c-77.131,16.736-93.382-37.179-93.382-37.179c-12.61-32.017-30.836-40.541-30.836-40.541c-25.122-17.184,1.94-16.84,1.94-16.84
	c27.823,1.94,42.446,28.552,42.446,28.552c24.74,42.377,64.899,30.146,80.734,23.043c2.495-17.917,9.632-30.146,17.568-37.076
	c-61.574-6.93-126.265-30.77-126.265-136.97c0-30.252,10.741-54.991,28.517-74.395c-2.875-7-12.403-35.169,2.668-73.354
	c0,0,23.284-7.45,76.23,28.414c22.106-6.168,45.841-9.22,69.404-9.356c23.562,0.138,47.259,3.188,69.402,9.356
	c52.911-35.865,76.161-28.414,76.161-28.414c15.145,38.183,5.647,66.353,2.774,73.354c17.775,19.404,28.517,44.144,28.517,74.395
	c0,106.479-64.796,129.935-126.575,136.763c9.945,8.522,18.816,25.468,18.816,51.282c0,37.075-0.35,66.979-0.35,76.057
	c0,7.447,4.99,16.043,19.058,13.34c110.082-36.69,189.43-140.502,189.43-262.955C757.2,126.847,633.087,2.731,480,2.731"/>
</svg>
