<?xml version="1.0" encoding="utf-8"?>
<!-- Generator: Adobe Illustrator 16.0.0, SVG Export Plug-In . SVG Version: 6.00 Build 0)  -->
<!DOCTYPE svg PUBLIC "-//W3C//DTD SVG 1.1//EN" "http://www.w3.org/Graphics/SVG/1.1/DTD/svg11.dtd">
<svg version="1.1" id="Layer_1" xmlns="http://www.w3.org/2000/svg" xmlns:xlink="http://www.w3.org/1999/xlink" x="0px" y="0px"
	 width="960px" height="560px" viewBox="0 0 960 560" enable-background="new 0 0 960 560" xml:space="preserve">
<g>
	<path fill="#FFFFFF" stroke="#DC4E41" stroke-width="2" stroke-linecap="square" stroke-miterlimit="10" d="M378.15,254.555v61.075
		h101.15c-4.062,26.25-30.557,76.895-101.047,76.895c-60.795,0-110.425-50.398-110.425-112.523s49.525-112.525,110.32-112.525
		c34.648,0,57.82,14.771,71.05,27.51l48.37-46.55c-31.045-29.05-71.295-46.55-119.351-46.55C279.625,101.85,200,181.44,200,280
		c0,98.56,79.66,178.148,178.15,178.148c102.9,0,171.08-72.273,171.08-174.09c0-11.688-1.26-20.648-2.8-29.505L378.15,254.555
		L378.15,254.555z M760,254.555h-50.925V203.63H658.15v50.925h-50.89v50.89h50.925v50.925h50.925v-50.925H760V254.555z"/>
</g>
</svg>
