<?xml version="1.0" encoding="utf-8"?>
<!-- Generator: Adobe Illustrator 16.0.0, SVG Export Plug-In . SVG Version: 6.00 Build 0)  -->
<!DOCTYPE svg PUBLIC "-//W3C//DTD SVG 1.1//EN" "http://www.w3.org/Graphics/SVG/1.1/DTD/svg11.dtd">
<svg version="1.1" id="Ebene_1" xmlns="http://www.w3.org/2000/svg" xmlns:xlink="http://www.w3.org/1999/xlink" x="0px" y="0px"
	 width="960px" height="560px" viewBox="0 0 960 560" enable-background="new 0 0 960 560" xml:space="preserve">
<polygon fill="#4352B8" points="601.129,453.6 506.209,559.159 471.656,453.6 "/>
<path fill="#FFFFFF" stroke="#4F8BF5" stroke-width="2" stroke-miterlimit="10" d="M722.816,112.336h-251.16l-0.482,341.41
	l34.362,105.413h217.28c20.44,0,37.184-16.464,37.184-36.624V148.96C760,128.8,743.257,112.336,722.816,112.336z M724.72,267.064
	h-47.265c-4.592,29.12-26.264,60.872-47.6,86.128c15.904,17.08,37.576,38.36,67.144,65.185l-17.92,17.92
	c-27.607-25.704-48.943-47.265-65.464-65.185c-16.52,17.528-29.68,28.84-29.68,28.84L575.2,372.68c0,0,9.464-7.561,21.896-20.272
	c-38.304-44.912-39.48-60.647-39.48-60.647h28.393c0,0,0.111,10.527,27.439,42.84c15.4-18.48,31.192-42.28,38.36-67.479H518.08
	V245.28h67.2V210h34.16v35.279h105.28V267.064z"/>
<g>
	<path fill="#FFFFFF" d="M238.248,452.656c-19.952,0-36.184-16.231-36.184-36.184V37.352c0-19.983,16.232-36.24,36.184-36.24
		h216.551l145.014,451.544H238.248z M357.92,140.568c-47.58,0-86.288,38.708-86.288,86.288c0,47.61,38.708,86.344,86.288,86.344
		c40.96,0,82.425-29.639,82.425-86.287c0-4.728-0.687-10.17-1.986-15.74l-0.18-0.773H356.92v34.929h45.51
		c-4.465,19.113-21.4,30.928-44.51,30.928c-27.239,0-49.399-22.161-49.399-49.4c0-27.239,22.161-49.399,49.399-49.399
		c11.307,0,21.952,3.814,30.783,11.03l0.701,0.572l26.206-26.206l-0.809-0.704C398.578,148.031,378.909,140.568,357.92,140.568z"/>
	<path fill="#4F8BF5" d="M454.07,2.112l144.372,449.544H238.248c-19.4,0-35.184-15.783-35.184-35.184V37.352
		c0-19.432,15.783-35.24,35.184-35.24H454.07 M357.92,314.199c41.457,0,83.425-29.982,83.425-87.287
		c0-4.803-0.696-10.324-2.012-15.967l-0.361-1.545h-1.587h-9.688h-31.808H357.92h-2v2v32.929v2h2h43.23
		c-2.278,8.574-7.167,15.689-14.242,20.684c-7.639,5.394-17.663,8.244-28.989,8.244c-12.954,0-25.115-5.027-34.243-14.156
		c-9.129-9.129-14.156-21.29-14.156-34.244c0-12.954,5.027-25.115,14.156-34.243c9.128-9.129,21.29-14.156,34.243-14.156
		c11.074,0,21.5,3.736,30.15,10.805l1.401,1.145l1.279-1.279l24.809-24.809l1.516-1.516l-1.617-1.407
		c-16.407-14.279-36.304-21.827-57.538-21.827c-48.131,0-87.288,39.157-87.288,87.288
		C270.632,275.017,309.789,314.199,357.92,314.199 M455.528,0.112h-217.28c-20.439,0-37.184,16.744-37.184,37.24v379.12
		c0,20.439,16.744,37.184,37.184,37.184h362.937L455.528,0.112L455.528,0.112z M357.92,312.199
		c-47.264,0-85.288-38.023-85.288-85.344c0-47.319,37.969-85.288,85.288-85.288c21.729,0,41.104,8.177,56.225,21.336l-24.809,24.809
		c-8.567-7-19.376-11.256-31.416-11.256c-27.888,0-50.399,22.512-50.399,50.399c0,27.889,22.512,50.4,50.399,50.4
		c23.633,0,41.496-11.984,45.752-32.928H357.92V211.4h37.969h31.808h9.688c1.176,5.04,1.96,10.473,1.96,15.513
		C439.344,281.176,400.592,312.199,357.92,312.199L357.92,312.199z"/>
</g>
<path opacity="0.2" fill="#FFFFFF" enable-background="new    " d="M500.272,112.336h222.544c20.44,0,37.184,16.464,37.184,36.624
	v224.111L500.272,112.336z"/>
</svg>
