<?xml version="1.0" encoding="utf-8"?>
<!-- Generator: Adobe Illustrator 16.0.0, SVG Export Plug-In . SVG Version: 6.00 Build 0)  -->
<!DOCTYPE svg PUBLIC "-//W3C//DTD SVG 1.1//EN" "http://www.w3.org/Graphics/SVG/1.1/DTD/svg11.dtd">
<svg version="1.1" id="Layer_1" xmlns="http://www.w3.org/2000/svg" xmlns:xlink="http://www.w3.org/1999/xlink" x="0px" y="0px"
	 width="960px" height="560px" viewBox="0 0 960 560" enable-background="new 0 0 960 560" xml:space="preserve">
<path fill="#FFFFFF" stroke="#BD081C" stroke-width="2" stroke-miterlimit="10" d="M480,0C325.37,0,200,125.37,200,280
	c0,118.648,73.78,219.975,177.94,260.75c-2.45-22.155-4.655-56.142,0.979-80.325c5.11-21.875,32.83-139.195,32.83-139.195
	s-8.398-16.8-8.398-41.58c0-38.85,22.61-68.005,50.68-68.005c23.905,0,35.42,17.955,35.42,39.445
	c0,24.045-15.26,59.955-23.17,93.238c-6.648,27.896,14,50.575,41.477,50.575c49.698,0,87.988-52.43,87.988-128.17
	c0-67.023-48.158-113.89-116.97-113.89c-79.66,0-126.352,59.745-126.352,121.52c0,24.045,9.205,49.84,20.757,63.875
	c2.31,2.8,2.625,5.25,1.993,8.05c-2.1,8.82-6.858,27.86-7.805,31.745c-1.225,5.11-4.023,6.23-9.38,3.745
	c-34.93-16.273-56.84-67.41-56.84-108.5c0-88.34,64.188-169.398,185.045-169.398c97.09,0,172.62,69.193,172.62,161.7
	c0,96.493-60.898,174.193-145.354,174.193c-28.352,0-55.021-14.77-64.155-32.2l-17.5,66.57c-6.3,24.325-23.347,54.81-34.79,73.395
	c26.25,8.12,54.075,12.495,82.95,12.495c154.595,0,280-125.37,280-279.998c0-154.632-125.405-280-280-280L480,0z"/>
</svg>
