<?xml version="1.0" encoding="utf-8"?>
<!-- Generator: Adobe Illustrator 16.0.0, SVG Export Plug-In . SVG Version: 6.00 Build 0)  -->
<!DOCTYPE svg PUBLIC "-//W3C//DTD SVG 1.1//EN" "http://www.w3.org/Graphics/SVG/1.1/DTD/svg11.dtd">
<svg version="1.1" id="Layer_1" xmlns="http://www.w3.org/2000/svg" xmlns:xlink="http://www.w3.org/1999/xlink" x="0px" y="0px"
	 width="960px" height="560px" viewBox="0 0 960 560" enable-background="new 0 0 960 560" xml:space="preserve">
<g>
	<g>
		<path fill="#FFFFFF" stroke="#5194D0" stroke-width="2" stroke-miterlimit="10" d="M290.229,252.723
			c-1.608-3.825-2.439-9.092-2.439-15.745c0-4.047,1.109-8.979,3.326-14.855c2.218-5.877,4.657-10.425,7.262-13.641
			c-0.221-4.436,0.557-9.813,2.273-16.078c1.719-6.265,3.992-10.589,6.82-13.026c0-28.108,9.367-57.271,28.053-87.483
			c18.683-30.215,40.69-51.393,65.918-63.535c28.108-13.359,60.874-20.014,98.24-20.014c26.889,0,53.776,5.544,80.665,16.688
			c9.925,4.268,19.017,9.092,27.274,14.578c8.264,5.436,15.47,11.146,21.514,16.966c6.042,5.877,11.642,12.752,16.687,20.624
			c5.046,7.873,9.314,15.355,12.752,22.452c3.438,7.099,6.708,15.636,9.868,25.613c3.159,9.979,5.71,19.071,7.706,27.11
			c1.996,8.094,4.271,17.962,6.652,29.716l0.276,1.498c11.145,16.798,16.688,31.933,16.688,45.46c0,2.827-0.887,6.874-2.717,12.141
			c-1.829,5.269-2.718,9.094-2.718,11.531c0,0.222,0.166,0.555,0.443,1.054s0.665,0.998,1.054,1.497
			c0.39,0.499,0.608,0.832,0.608,1.056c15.579,23.063,27.721,44.737,36.536,65.028c8.813,20.291,13.193,41.359,13.193,63.202
			c0,8.704-1.994,18.794-5.934,30.325c-3.936,11.532-9.535,17.298-16.853,17.298c-1.83,0-3.771-0.776-5.935-2.272
			c-2.163-1.498-4.047-3.271-5.766-5.32c-1.721-1.997-3.659-4.657-5.769-7.873c-2.104-3.216-3.714-5.935-4.878-8.039
			c-1.164-2.106-2.494-4.771-4.103-7.872c-1.608-3.161-2.55-4.879-2.717-5.322c-0.224-0.222-0.498-0.276-0.889-0.276l-1.497,1.221
			c-11.92,31.102-25.279,53.666-40.026,67.637c4.048,4.047,10.257,7.928,18.628,11.697c8.372,3.715,15.355,7.928,20.899,12.585
			c5.545,4.657,9.148,11.199,10.757,19.682c-0.39,0.832-0.831,2.439-1.221,4.879c-0.388,2.44-1.107,4.271-2.105,5.435
			c-12.917,19.626-43.465,29.384-91.586,29.384c-10.701,0-21.899-0.888-33.486-2.717c-11.643-1.829-21.511-3.825-29.716-6.043
			c-8.206-2.219-18.739-5.269-31.656-9.094c-3.049-0.997-5.377-1.72-6.985-2.105c-2.825-0.831-7.483-1.274-13.972-1.386
			c-6.485-0.11-10.533-0.276-12.141-0.443c-8.262,9.092-21.181,15.689-38.644,19.682c-17.463,3.99-34.374,6.042-50.949,6.042
			c-7.097,0-14.024-0.166-20.899-0.441c-6.875-0.276-16.244-1.22-28.221-2.717c-11.92-1.497-22.12-3.604-30.603-6.209
			c-8.483-2.605-16.023-6.652-22.564-12.143c-6.542-5.434-9.866-11.92-9.866-19.405c0-8.094,0.997-14.08,3.049-18.018
			c1.995-3.936,6.151-8.87,12.418-14.691c2.217-0.388,6.319-1.718,12.252-3.936c5.932-2.219,10.977-3.438,15.022-3.66
			c0.831,0,2.22-0.221,4.27-0.608c0.389-0.389,0.609-0.831,0.609-1.221l-0.609-0.888c-9.702-2.217-20.624-12.861-32.765-31.988
			c-12.143-19.127-19.517-34.927-22.12-47.457l-1.498-0.887c-0.832,0-1.996,1.996-3.659,6.043
			c-3.659,8.261-9.147,15.8-16.521,22.563c-7.373,6.767-15.188,10.535-23.507,11.366h-0.274c-0.832,0-1.441-0.441-1.83-1.387
			c-0.39-0.887-0.889-1.441-1.497-1.663c-4.657-10.922-6.985-21.011-6.985-30.325C213.777,338.434,239.28,291.31,290.229,252.723
			L290.229,252.723z"/>
	</g>
</g>
</svg>
