<?xml version="1.0" encoding="utf-8"?>
<!-- Generator: Adobe Illustrator 16.0.0, SVG Export Plug-In . SVG Version: 6.00 Build 0)  -->
<!DOCTYPE svg PUBLIC "-//W3C//DTD SVG 1.1//EN" "http://www.w3.org/Graphics/SVG/1.1/DTD/svg11.dtd">
<svg version="1.1" id="Layer_1" xmlns="http://www.w3.org/2000/svg" xmlns:xlink="http://www.w3.org/1999/xlink" x="0px" y="0px"
	 width="960px" height="560px" viewBox="0 0 960 560" enable-background="new 0 0 960 560" xml:space="preserve">
<g>
	<g>
		<path fill="#5194D0" d="M757.918,2v556H202.083V2H757.918 M760,0H200v560h560V0L760,0z"/>
	</g>
</g>
<g>
	<g>
		<g>
			<path fill="#FFFFFF" stroke="#5194D0" stroke-width="2" stroke-miterlimit="10" d="M690.891,370.863
				c-23.458-16.451-52.735-15.375-69.355,8.365c-16.674,23.63-133.008,169.577-323.669,108.925
				c7.177,6.274,14.753,12.209,22.723,17.807c125.038,88.064,297.78,58.052,385.849-66.983
				C723.114,415.29,714.352,387.425,690.891,370.863L690.891,370.863z M322.965,352.322
				c-12.156-26.228-80.325-199.988,67.433-334.803c-9.043,3.107-17.974,6.671-26.792,10.741
				C224.89,92.529,164.464,257.132,228.733,395.905c12.153,26.228,40.756,32.617,66.758,20.574
				C321.494,404.44,335.117,378.549,322.965,352.322L322.965,352.322z M504.864,3.726c-28.771-2.601-48.612,18.935-51.155,47.481
				c-2.544,28.546,13.112,53.306,41.886,55.904c28.772,2.601,213.33,30.466,256.178,225.878c1.865-9.387,3.166-18.881,4.07-28.547
				C769.52,152.05,657.203,17.46,504.864,3.726L504.864,3.726z M386.386,295.967c-7.971,18.652-9.214,36.514-2.827,39.793
				c4.408,2.261,11.249-2.938,17.694-12.551c2.542,10.459,8.872,19.957,17.917,27.529c-9.438,3.447-15.657,9.16-15.657,15.601
				c0,10.688,16.732,19.223,37.364,19.223c18.598,0,34.03-7.012,36.854-16.169c0.736,0,3.73,0,4.411,0
				c2.884,9.157,18.258,16.169,36.911,16.169c20.631,0,37.364-8.595,37.364-19.223c0-6.5-6.163-12.153-15.658-15.601
				c8.987-7.572,15.374-17.015,17.86-27.529c6.444,9.555,13.286,14.811,17.753,12.551c6.33-3.279,5.142-21.141-2.884-39.793
				c-6.218-14.697-14.697-25.552-21.142-27.869c0.113-0.96,0.113-1.922,0.113-2.825c0-5.71-1.583-10.909-4.296-15.148
				c0.058-0.34,0.058-0.68,0.058-1.02c0-2.658-0.623-5.031-1.698-7.181c-1.525-38.154-26.34-68.452-66.53-68.452
				c-40.246,0-65.063,30.299-66.702,68.452c-1.071,2.094-1.696,4.523-1.696,7.181c0,0.282,0.059,0.621,0.059,1.02
				c-2.658,4.295-4.239,9.496-4.239,15.203c0,0.964,0.057,1.866,0.111,2.828C401.082,270.415,392.602,281.27,386.386,295.967
				L386.386,295.967z"/>
		</g>
	</g>
</g>
<g id="XMLID_15_">
	<g>
		<path d="M346.043,739.775c1.057,2.179,1.833,4.656,1.641,7.586c-0.077,1.202-0.386,2.517-0.975,3.326
			c-0.3,0.409-0.735,0.791-1.198,0.798c-0.776,0.014-1.331-0.911-1.729-1.508c-0.473-0.708-0.83-1.393-1.198-2.085
			c-0.478,0.492-0.645,1.208-0.887,1.817c-0.757,1.91-1.813,3.573-3.149,4.925c1.251,0.725,2.418,1.229,3.505,2.084
			c0.668,0.526,1.552,1.284,1.33,2.528c-0.146,0.831-0.862,1.532-1.376,1.862c-3.573,2.307-11.037,1.969-15.435,0.533
			c-0.854-0.28-1.711-0.729-2.484-0.843c-0.293-0.044-0.798-0.023-1.108-0.045c-0.448-0.03-0.947-0.116-1.153-0.09
			c-0.264,0.036-0.492,0.308-0.798,0.488c-1.938,1.146-3.832,1.795-6.743,1.996c-3.233,0.226-6.495-0.043-9.003-0.843
			c-1.331-0.424-3.111-1.291-3.282-2.838c-0.084-0.75,0.122-1.874,0.399-2.396c0.688-1.304,2.242-1.724,4.168-1.907
			c-0.071-0.333-0.533-0.547-0.843-0.8c-1.828-1.492-3.262-3.503-4.169-5.987c-0.146-0.398-0.201-0.849-0.443-1.241
			c-0.428,0.313-0.478,0.891-0.754,1.331c-0.56,0.888-1.453,1.823-2.353,2.262c-0.33,0.161-0.82,0.354-1.196,0.266
			c-0.729-0.171-0.896-1.512-0.978-2.438c-0.302-3.444,0.698-6.224,1.819-8.384c1.432-2.761,3.478-4.553,5.545-6.255
			c-0.577-1.593,0.107-3.379,0.842-4.348c0.028-0.728,0.099-1.398,0.354-2.04c0.146-0.354,0.467-0.582,0.532-0.887
			c0.07-0.319-0.028-0.676,0-1.065c0.327-4.317,2.986-8.22,5.368-10.6c1.413-1.414,2.668-2.418,4.655-3.327
			c1.801-0.823,4.089-1.3,6.566-1.553c1.077,0,2.157,0,3.235,0c7.935,0.75,12.977,4.271,15.349,10.602
			c0.364,0.973,0.631,1.96,0.888,3.017c0.254,1.044,0.223,2.319,0.576,3.415c0.214,0.663,0.766,1.254,1.064,1.952
			c0.606,1.412,0.808,3.406,0,4.789C343.823,735.556,345.009,737.644,346.043,739.775z M342.716,759.115
			c0.376-2.04-2.059-1.636-3.637-1.729c0.191-0.668,1.122-0.592,1.818-0.754c-0.597-0.707-1.593-1.396-2.973-1.465
			c-3.031,2.645-6.567,4.785-11.576,5.456c1.44,1.203,4.591,1.694,7.674,1.817c3.032,0.121,6.287-0.618,7.807-1.907
			C342.234,760.191,342.621,759.633,342.716,759.115z M340.055,748.956c1.104-4.16-0.569-7.771-2.263-10.245
			c-5.013,3.402-13.105,6.049-20.804,4.034c0.045,0.823,0.128,1.729,0.134,2.706c0.005,0.972,0.195,2.062,0.044,2.883
			c-0.117,0.646-0.679,1.3-1.196,1.51c-0.769,0.312-1.958,0.297-2.93,0.223c-1.758-0.137-3.261-0.984-3.725-2.352
			c-0.176-0.52-0.14-1.182-0.179-1.819c-0.119-2.033,0.077-3.921,0.355-5.722c-0.846-0.589-1.743-1.126-2.706-1.598
			c-1.444,1.452-2.125,5.038-2.04,7.541c0.021,0.636,0.159,1.545,0.311,2.263c0.412,1.965,1.507,3.791,2.706,5.189
			c1.241,1.449,2.605,2.588,4.303,3.592c3.394,2.013,8.088,3.017,12.598,3.063c1.633,0.016,3.217-0.312,4.701-0.843
			c1.508-0.542,2.95-1.376,4.259-2.22c1.289-0.829,2.64-1.99,3.504-2.972C338.282,752.881,339.518,750.983,340.055,748.956z
			 M333.402,731.789c0.361-0.167,1.765-0.771,1.729-1.241c-0.02-0.237-0.746-0.669-1.108-0.887
			c-3.769-2.251-9.396-3.029-14.948-2.219c-2.127,0.313-4.053,0.813-5.811,1.644c-0.557,0.262-2.139,1.056-2.085,1.64
			c0.021,0.228,0.378,0.505,0.576,0.622c0.864,0.507,2.263,0.805,3.238,1.02c-0.198-0.543-0.586-0.892-0.8-1.419
			c1.998,1.384,4.328,2.877,7.407,3.149c4.612,0.406,8.112-1.41,10.734-3.149c-0.25,0.629-1.129,0.919-1.287,1.464
			C332.069,732.401,332.656,732.135,333.402,731.789z M328.389,727.222c3.081-1.104,3.179-8.306,0.045-9.492
			c-0.281-0.106-0.839-0.111-1.021-0.088c-1.013,0.122-1.712,0.842-2.13,1.553c-1.396,2.374-0.918,7.275,1.73,8.072
			C327.51,727.416,328.064,727.338,328.389,727.222z M318.499,727.178c2.244,0.224,3.325-2.575,3.281-4.79
			c-0.046-2.284-1.131-4.686-2.972-4.701c-1.132-0.012-1.934,0.767-2.396,1.597C315.04,721.738,315.629,726.892,318.499,727.178z
			 M312.642,762.705c3.021-0.15,6.146-0.59,7.274-2.262c-4.633-0.55-8.8-1.938-11.933-4.081c-0.396-0.27-1.05-0.857-1.374-0.931
			c-0.07-0.017-0.221,0.042-0.354,0.043c-1.066,0.018-1.794,0.433-2.617,0.933c-0.553,0.336-1.23,0.854-0.798,1.465
			c0.491-0.025,0.791-0.242,1.374-0.179c-0.567,0.498-1.555,0.885-1.773,1.729c-0.188,0.729,0.512,1.346,0.932,1.642
			C305.462,762.544,309.073,762.888,312.642,762.705z"/>
		<path d="M337.305,746.65c0.037,0.506-0.653,0.628-0.932,0.313c-0.854,0.229-1.979,0.008-1.774-1.108
			c0.18-0.976,1.55-1.893,2.219-0.977c0.289,0.396,0.188,1.1,0.396,1.642c-0.208-0.146-0.357-0.351-0.619-0.444
			C335.658,746.353,336.998,747.566,337.305,746.65z M336.018,745.941c0.201-0.063,0.223,0.172,0.355,0.044
			c-0.182-1.575-1.55,0.501-0.533,0.576C335.823,746.278,335.848,746.035,336.018,745.941z M336.152,746.117
			c-0.229-0.036-0.168,0.217-0.177,0.399C336.125,746.476,336.066,746.225,336.152,746.117z"/>
		<path d="M336.418,746.518c-0.188-0.063,0.003-0.296,0.178-0.268C336.577,746.381,336.45,746.402,336.418,746.518z"/>
		<path d="M334.467,746.65c0.024,0.478-0.658,0.647-0.933,0.313c-0.787,0.157-1.766,0.092-1.817-0.755
			c-0.064-1.048,1.342-2.194,2.129-1.465c0.295,0.274,0.419,0.786,0.354,1.42c0.058,0.105,0.113,0.212,0.179,0.312
			c-0.311,0-0.354-0.427-0.665-0.399c-0.595,0.051-0.187,0.941,0.267,0.932C334.29,746.997,334.22,746.789,334.467,746.65z
			 M333.18,745.941c0.173-0.035,0.229,0.163,0.354,0.044c-0.071-0.299-0.175-0.563-0.443-0.665c-0.372,0.127-0.79,1.291-0.089,1.198
			C332.942,746.301,332.996,746.034,333.18,745.941z M333.18,746.518c0.016-0.138,0.224-0.384,0.045-0.444
			C333.143,746.211,333,746.433,333.18,746.518z"/>
		<path d="M333.713,746.206c0.122,0.099-0.141,0.182-0.134,0.312C333.363,746.426,333.64,746.28,333.713,746.206z"/>
		<path d="M327.68,721.057c0.593,0.289,0.962,1.389,0.619,2.262c-0.961,0.134-0.553-1.236-1.107-1.331
			c-0.612-0.102-0.52,1.058-0.888,1.376c-0.688-0.091-0.52-0.928-0.354-1.419C326.156,721.327,326.902,720.676,327.68,721.057z"/>
		<path d="M320.139,720.569c1.771-0.234,1.604,3.938,0.089,3.858C318.689,724.35,318.608,720.773,320.139,720.569z"/>
	</g>
</g>
</svg>
