<?xml version="1.0" encoding="utf-8"?>
<!-- Generator: Adobe Illustrator 16.0.0, SVG Export Plug-In . SVG Version: 6.00 Build 0)  -->
<!DOCTYPE svg PUBLIC "-//W3C//DTD SVG 1.1//EN" "http://www.w3.org/Graphics/SVG/1.1/DTD/svg11.dtd">
<svg version="1.1" id="Layer_1" xmlns="http://www.w3.org/2000/svg" xmlns:xlink="http://www.w3.org/1999/xlink" x="0px" y="0px"
	 width="960px" height="560px" viewBox="0 0 960 560" enable-background="new 0 0 960 560" xml:space="preserve">
<g>
	<g>
		<path fill="#5194D0" d="M757.918,2v556H202.083V2H757.918 M760,0H200v560h560V0L760,0z"/>
	</g>
</g>
<g id="XMLID_15_">
	<g>
		<path fill="#FFFFFF" stroke="#5194D0" stroke-width="2" stroke-miterlimit="10" d="M729.468,311.954
			c10.843,22.384,18.83,47.834,16.844,77.932c-0.792,12.351-3.953,25.847-10.001,34.173c-3.081,4.2-7.564,8.124-12.321,8.194
			c-7.976,0.144-13.674-9.359-17.756-15.488c-4.854-7.274-8.528-14.297-12.313-21.419c-4.903,5.055-6.618,12.409-9.106,18.68
			c-7.776,19.624-18.609,36.71-32.355,50.583c12.853,7.444,24.842,12.62,35.995,21.41c6.863,5.417,15.941,13.191,13.677,25.983
			c-1.516,8.536-8.868,15.742-14.138,19.133c-36.72,23.696-113.397,20.226-158.561,5.478c-8.781-2.879-17.577-7.484-25.524-8.658
			c-3.012-0.452-8.196-0.24-11.396-0.46c-4.604-0.312-9.731-1.194-11.849-0.915c-2.711,0.372-5.059,3.151-8.198,5.018
			c-19.902,11.759-39.366,18.438-69.273,20.506c-33.217,2.317-66.724-0.441-92.488-8.657c-13.675-4.354-31.963-13.265-33.719-29.156
			c-0.863-7.702,1.255-19.251,4.104-24.605c7.072-13.395,23.034-17.708,42.818-19.596c-0.732-3.422-5.478-5.62-8.657-8.219
			c-18.78-15.329-33.5-35.983-42.829-61.506c-1.484-4.105-2.066-8.72-4.555-12.761c-4.395,3.229-4.896,9.146-7.745,13.673
			c-5.738,9.118-14.929,18.74-24.158,23.234c-3.391,1.653-8.437,3.651-12.299,2.729c-7.496-1.755-9.19-15.529-10.033-25.049
			c-3.1-35.387,7.175-63.93,18.689-86.13c14.708-28.352,35.727-46.761,56.965-64.249c-5.93-16.361,1.104-34.711,8.648-44.664
			c0.291-7.474,1.004-14.376,3.642-20.958c1.494-3.642,4.795-5.979,5.478-9.108c0.723-3.282-0.301-6.942,0-10.947
			c3.361-44.363,30.68-84.441,55.148-108.893c14.517-14.525,27.408-24.84,47.825-34.18c18.5-8.458,42.005-13.354,67.458-15.952
			c11.076,0,22.17,0,33.249,0c81.505,7.705,133.302,43.893,157.669,108.912c3.754,9.982,6.48,20.134,9.12,30.98
			c2.608,10.725,2.287,23.837,5.919,35.084c2.198,6.81,7.864,12.881,10.945,20.063c6.23,14.506,8.287,34.992,0,49.198
			C706.662,268.615,718.844,290.066,729.468,311.954z M695.287,510.648c3.863-20.956-21.148-16.805-37.362-17.778
			c1.968-6.859,11.528-6.078,18.682-7.743c-6.121-7.264-16.359-14.326-30.528-15.039c-31.15,27.158-67.478,49.158-118.936,56.052
			c14.809,12.359,47.162,17.406,78.837,18.672c31.148,1.242,64.589-6.354,80.199-19.595
			C690.329,521.694,694.312,515.965,695.287,510.648z M667.949,406.291c11.346-42.75-5.851-79.829-23.235-105.261
			c-51.497,34.963-134.646,62.14-213.722,41.453c0.461,8.455,1.313,17.767,1.373,27.799c0.051,9.974,2.009,21.171,0.452,29.615
			c-1.204,6.634-6.973,13.345-12.3,15.503c-7.886,3.2-20.115,3.048-30.087,2.287c-18.059-1.407-33.498-10.113-38.264-24.159
			c-1.806-5.328-1.435-12.13-1.836-18.689c-1.223-20.888,0.802-40.281,3.662-58.78c-8.687-6.051-17.907-11.566-27.799-16.402
			c-14.849,14.917-21.831,51.756-20.959,77.471c0.223,6.521,1.636,15.871,3.181,23.235c4.234,20.186,15.48,38.945,27.801,53.321
			c12.762,14.889,26.775,26.587,44.202,36.898c34.863,20.667,83.09,30.979,129.422,31.45c16.771,0.162,33.047-3.188,48.296-8.655
			c15.488-5.569,30.305-14.137,43.753-22.795c13.239-8.527,27.106-20.455,35.994-30.528
			C649.739,446.6,662.429,427.098,667.949,406.291z M599.595,229.929c3.712-1.713,18.132-7.925,17.777-12.761
			c-0.199-2.438-7.675-6.872-11.396-9.1c-38.707-23.124-96.514-31.13-153.57-22.794c-21.85,3.211-41.632,8.348-59.692,16.876
			c-5.708,2.688-21.961,10.845-21.419,16.845c0.222,2.337,3.882,5.187,5.931,6.39c8.877,5.207,23.233,8.267,33.266,10.475
			c-2.036-5.579-6.018-9.159-8.216-14.578c20.527,14.207,44.464,29.557,76.098,32.354c47.394,4.175,83.351-14.486,110.286-32.354
			c-2.568,6.461-11.596,9.441-13.221,15.039C585.904,236.2,591.931,233.471,599.595,229.929z M548.1,182.998
			c31.651-11.347,32.656-85.316,0.46-97.517c-2.891-1.093-8.619-1.144-10.475-0.901c-10.402,1.254-17.586,8.647-21.881,15.951
			c-14.345,24.39-9.43,74.742,17.778,82.93C539.07,184.994,544.76,184.193,548.1,182.998z M446.503,182.547
			c23.055,2.297,34.16-26.456,33.708-49.209c-0.474-23.465-11.62-48.126-30.529-48.296c-11.628-0.12-19.854,7.875-24.61,16.402
			C410.967,126.656,417.015,179.607,446.503,182.547z M386.326,547.537c31.052-1.554,63.146-6.061,74.742-23.233
			c-47.593-5.65-90.403-19.917-122.588-41.927c-4.054-2.771-10.784-8.819-14.114-9.563c-0.723-0.159-2.268,0.434-3.641,0.443
			c-10.967,0.179-18.432,4.444-26.897,9.581c-5.669,3.449-12.642,8.756-8.187,15.047c5.046-0.271,8.126-2.498,14.114-1.835
			c-5.838,5.118-15.971,9.089-18.228,17.767c-1.938,7.504,5.256,13.825,9.57,16.865
			C312.568,545.872,349.657,549.403,386.326,547.537z"/>
		<path fill="#FFFFFF" stroke="#5194D0" stroke-width="2" stroke-miterlimit="10" d="M639.694,382.585
			c0.394,5.194-6.71,6.448-9.559,3.196c-8.779,2.357-20.348,0.08-18.241-11.386c1.847-10.021,15.925-19.441,22.795-10.029
			c2.97,4.07,1.947,11.293,4.084,16.863c-2.137-1.504-3.684-3.604-6.372-4.566C622.781,379.531,636.547,391.993,639.694,382.585z
			 M626.472,375.3c2.066-0.644,2.288,1.765,3.663,0.45c-1.867-16.181-15.922,5.146-5.479,5.919
			C624.476,378.761,624.727,376.282,626.472,375.3z M627.847,377.126c-2.337-0.372-1.727,2.217-1.816,4.104
			C627.579,380.798,626.964,378.221,627.847,377.126z"/>
		<path fill="#FFFFFF" stroke="#5194D0" stroke-width="2" stroke-miterlimit="10" d="M630.586,381.231
			c-1.926-0.655,0.031-3.041,1.815-2.747C632.22,379.824,630.92,380.034,630.586,381.231z"/>
		<path fill="#FFFFFF" stroke="#5194D0" stroke-width="2" stroke-miterlimit="10" d="M610.541,382.585
			c0.25,4.895-6.771,6.649-9.579,3.196c-8.087,1.626-18.141,0.944-18.671-7.745c-0.673-10.763,13.774-22.551,21.859-15.047
			c3.03,2.819,4.305,8.076,3.644,14.587c0.592,1.085,1.163,2.179,1.836,3.191c-3.19,0-3.65-4.384-6.833-4.104
			c-6.109,0.521-1.915,9.672,2.729,9.563C608.727,386.164,608.003,384.028,610.541,382.585z M597.319,375.3
			c1.775-0.362,2.357,1.676,3.643,0.45c-0.731-3.068-1.797-5.799-4.556-6.83c-3.834,1.304-8.113,13.26-0.912,12.311
			C594.872,379.003,595.432,376.274,597.319,375.3z M597.319,381.231c0.159-1.416,2.298-3.944,0.46-4.566
			C596.936,378.078,595.473,380.358,597.319,381.231z"/>
		<path fill="#FFFFFF" stroke="#5194D0" stroke-width="2" stroke-miterlimit="10" d="M602.797,378.036
			c1.254,1.004-1.442,1.858-1.375,3.193C599.196,380.285,602.046,378.781,602.797,378.036z"/>
		<path fill="#FFFFFF" stroke="#5194D0" stroke-width="2" stroke-miterlimit="10" d="M540.815,119.664
			c6.091,2.969,9.883,14.266,6.372,23.234c-9.875,1.374-5.679-12.702-11.386-13.675c-6.293-1.043-5.328,10.854-9.12,14.136
			c-7.065-0.934-5.328-9.531-3.644-14.578C525.156,122.453,532.82,115.75,540.815,119.664z"/>
		<path fill="#FFFFFF" stroke="#5194D0" stroke-width="2" stroke-miterlimit="10" d="M463.346,114.647
			c18.188-2.417,16.493,40.441,0.912,39.64C448.447,153.493,447.616,116.743,463.346,114.647z"/>
	</g>
</g>
</svg>
