<?xml version="1.0" encoding="utf-8"?>
<!-- Generator: Adobe Illustrator 16.0.0, SVG Export Plug-In . SVG Version: 6.00 Build 0)  -->
<!DOCTYPE svg PUBLIC "-//W3C//DTD SVG 1.1//EN" "http://www.w3.org/Graphics/SVG/1.1/DTD/svg11.dtd">
<svg version="1.1" id="Layer_1" xmlns="http://www.w3.org/2000/svg" xmlns:xlink="http://www.w3.org/1999/xlink" x="0px" y="0px"
	 width="960px" height="560px" viewBox="0 0 960 560" enable-background="new 0 0 960 560" xml:space="preserve">
<g>
	<g>
		<path fill="#FFFFFF" stroke="#0075C7" stroke-width="2" stroke-miterlimit="10" d="M703.031,370.016
			c-23.24-16.295-52.248-15.23-68.711,8.289c-16.521,23.408-131.77,168-320.657,107.912c7.112,6.215,14.616,12.096,22.512,17.639
			c123.872,87.248,295.008,57.514,382.256-66.359C734.951,414.033,726.271,386.424,703.031,370.016L703.031,370.016z
			 M338.528,351.649c-12.04-25.984-79.576-198.127,66.808-331.688c-8.96,3.08-17.808,6.608-26.544,10.641
			C241.367,94.273,181.503,257.344,245.175,394.824c12.04,25.984,40.376,32.313,66.136,20.385
			C337.072,403.281,350.568,377.633,338.528,351.649L338.528,351.649z M518.736,6.297c-28.504-2.576-48.161,18.76-50.68,47.04
			c-2.521,28.28,12.991,52.809,41.495,55.384c28.506,2.576,211.346,30.185,253.793,223.776c1.848-9.295,3.137-18.703,4.031-28.279
			C780.927,153.241,669.656,19.905,518.736,6.297L518.736,6.297z M401.36,295.817c-7.896,18.48-9.128,36.176-2.801,39.424
			c4.368,2.24,11.145-2.912,17.528-12.432c2.521,10.359,8.792,19.768,17.752,27.271c-9.352,3.416-15.512,9.072-15.512,15.457
			c0,10.584,16.576,19.039,37.016,19.039c18.425,0,33.713-6.943,36.512-16.016c0.729,0,3.695,0,4.369,0
			c2.855,9.072,18.088,16.016,36.566,16.016c20.441,0,37.018-8.512,37.018-19.039c0-6.441-6.105-12.041-15.514-15.457
			c8.904-7.504,15.232-16.855,17.697-27.271c6.383,9.463,13.16,14.672,17.584,12.432c6.271-3.248,5.096-20.943-2.855-39.424
			c-6.16-14.561-14.561-25.312-20.945-27.608c0.113-0.952,0.113-1.904,0.113-2.8c0-5.656-1.568-10.808-4.258-15.008
			c0.057-0.336,0.057-0.672,0.057-1.008c0-2.633-0.615-4.984-1.68-7.112c-1.512-37.8-26.096-67.816-65.912-67.816
			c-39.872,0-64.457,30.017-66.081,67.816c-1.063,2.072-1.68,4.479-1.68,7.112c0,0.279,0.056,0.615,0.056,1.008
			c-2.632,4.256-4.199,9.408-4.199,15.063c0,0.952,0.056,1.849,0.111,2.8C415.919,270.505,407.519,281.256,401.36,295.817
			L401.36,295.817z"/>
	</g>
</g>
</svg>
