<?xml version="1.0" encoding="utf-8"?>
<!-- Generator: Adobe Illustrator 16.0.0, SVG Export Plug-In . SVG Version: 6.00 Build 0)  -->
<!DOCTYPE svg PUBLIC "-//W3C//DTD SVG 1.1//EN" "http://www.w3.org/Graphics/SVG/1.1/DTD/svg11.dtd">
<svg version="1.1" id="Layer_1" xmlns="http://www.w3.org/2000/svg" xmlns:xlink="http://www.w3.org/1999/xlink" x="0px" y="0px"
	 width="960px" height="560px" viewBox="0 0 960 560" enable-background="new 0 0 960 560" xml:space="preserve">
<path fill="#FFFFFF" stroke="#54BEF3" stroke-width="2" stroke-miterlimit="10" d="M751.236,247.568
	c-1.587,0-3.157-0.276-4.667-0.821c-62.111-23.192-95.254-62.533-112.132-91.455c-4.612-7.969-8.766-16.526-12.38-25.496
	c-3.146-0.497-6.3-1.462-9.416-2.885l-0.118-0.055c-17.088-8.252-24.382-28.904-16.261-46.036
	c5.566-11.962,17.643-19.717,30.748-19.717c5.152,0,10.138,1.161,14.816,3.449c16.855,8.163,24.133,28.759,16.202,45.904
	l-0.045,0.096c-2.271,4.688-5.569,8.819-9.528,12.001c2.902,6.792,6.123,13.159,9.781,19.348
	c21.336,36.265,54.156,62.866,97.557,79.077l0.103,0.04c6.901,2.723,10.426,9.981,8.303,16.987
	c-0.014,0.055-0.027,0.109-0.042,0.162v0.424l-0.615,1.252C761.199,244.608,756.484,247.568,751.236,247.568z"/>
<path fill="#FFFFFF" stroke="#54BEF3" stroke-width="2" stroke-miterlimit="10" d="M628.568,189.78
	c-13.653,0-27.342-3.103-39.587-8.974c-45.35-21.879-64.72-77.007-43.194-122.896c14.952-31.998,47.305-52.678,82.418-52.678
	c13.593,0,26.737,3.017,39.068,8.966c45.481,21.811,64.798,76.895,43.046,122.786c-3.473,7.025-7.009,12.797-10.854,17.734
	c-2.566,3.312-6.467,5.218-10.691,5.218c-3.079,0-6.093-1.067-8.485-3.006c-2.77-2.193-4.554-5.421-4.971-9.047
	c-0.423-3.67,0.602-7.271,2.884-10.14c2.794-3.48,5.372-7.771,7.472-12.428c15.32-32.553,1.751-71.271-30.207-86.397
	c-8.729-4.219-17.964-6.347-27.49-6.347c-24.534,0-47.151,14.544-57.619,37.052c-15.375,32.278-1.815,71.022,30.202,86.416
	c8.512,4.064,17.818,6.217,26.901,6.217c0.772,0,1.544-0.015,2.316-0.045l0.363-0.006c7.488,0,13.459,5.782,13.682,13.2
	c0.245,3.554-0.893,6.972-3.216,9.645c-2.412,2.775-5.947,4.487-9.7,4.698l-0.193,0.008
	C629.998,189.771,629.283,189.78,628.568,189.78z"/>
<path fill="#FFFFFF" stroke="#54BEF3" stroke-width="2" stroke-miterlimit="10" d="M230.031,553.478
	c-12.593,0-18.606-22.96-19.185-29.456c-4.643-52.534-0.229-104.451,13.116-154.313c10.481-39.161,26.54-76.153,45.217-104.162
	c9.798-14.823,20.513-28.609,31.878-41.015c-2.122-6.01-3.195-12.324-3.195-18.821c0-30.997,25.024-56.215,55.784-56.215
	c30.69,0,55.659,25.218,55.659,56.216c0,31.097-24.969,56.396-55.659,56.396c-9.536,0-18.858-2.482-27.254-7.221
	c-5.362,6.741-11.12,16.054-16.719,25.11c-2.94,4.754-5.979,9.671-8.972,14.235c-40.723,61.648-58.894,142.006-51.179,226.288
	c0.566,6.789-2.849,21.614-9.276,28.6c-3.313,3.601-6.68,4.356-8.92,4.356H230.031z"/>
<path fill="#FFFFFF" stroke="#54BEF3" stroke-width="2" stroke-miterlimit="10" d="M351.409,366.505
	c-11.917,0-23.709-1.304-35.052-3.876c-10.394-2.477-16.774-12.678-14.589-23.239l0.035-0.159
	c2.101-8.929,9.792-15.164,18.704-15.164c1.505,0,3.017,0.183,4.493,0.543c8.347,1.938,17.234,2.929,26.352,2.929
	c64.815,0,117.546-53.347,117.546-118.919c0-65.605-52.731-118.979-117.546-118.979c-64.753,0-117.434,53.374-117.434,118.979
	c0,19.139,4.322,37.38,12.846,54.219c2.419,4.6,2.876,9.864,1.288,14.83c-1.591,4.971-5.027,9.001-9.682,11.358
	c-2.77,1.471-5.862,2.248-8.947,2.248c-7.194,0-13.736-4.069-17.074-10.621c-11.217-21.989-17.147-46.899-17.147-72.034
	c0-87.128,70.048-158.012,156.149-158.012c86.132,0,156.206,70.884,156.206,158.013c0.034,42.065-16.203,81.681-45.723,111.544
	C432.297,350.047,393.08,366.505,351.409,366.505z"/>
</svg>
