<?xml version="1.0" encoding="utf-8"?>
<!-- Generator: Adobe Illustrator 16.0.0, SVG Export Plug-In . SVG Version: 6.00 Build 0)  -->
<!DOCTYPE svg PUBLIC "-//W3C//DTD SVG 1.1//EN" "http://www.w3.org/Graphics/SVG/1.1/DTD/svg11.dtd">
<svg version="1.1" id="Layer_1" xmlns="http://www.w3.org/2000/svg" xmlns:xlink="http://www.w3.org/1999/xlink" x="0px" y="0px"
	 width="960px" height="560px" viewBox="0 0 960 560" enable-background="new 0 0 960 560" xml:space="preserve">
<g>
	<path fill="#FFFFFF" stroke="#FFCE00" stroke-width="2" stroke-miterlimit="10" d="M761.516,209.351
		c6.283,1.523,10.521,6.109,10.521,11.248c0,5.938-1.807,7.695-81.368,82.105c-30.029,28.166-51.805,49.883-51.805,51.69
		c0,0.616,0.91,4.858,1.921,9.329c1.41,5.876,1.536,8.707,0.624,9.615c-4.183,4.183-99.694,0.848-150.985-5.151
		c-19.338-2.313-25.618-3.851-25.618-6.271c0-1.021,3.281-4.362,7.522-7.412c6.672-4.866,30.706-21.604,37.888-26.466
		c1.587-1.022,8.372-5.77,14.876-10.351c6.67-4.572,30.189-20.803,52.356-36.188c53.896-37.093,56.328-38.898,56.328-40.938
		c0-2.546-1.413-2.83-24.315-5.878c-24.542-3.231-66.277-6.171-101.728-7.191c-54.002-1.635-181.865,9.846-156.762,14.09
		c2.433,0.393,23.185,1.695,46.091,2.712c68.595,3.164,79.572,4.07,121.699,9.444c26.626,3.443,27.143,3.723,20.754,9.726
		c-3.677,3.503-48.746,35.968-118.137,85.162c-22.163,15.713-41.615,29.687-43.14,31.104c-2.951,2.546-3.848,6.503-1.929,7.796
		c2.434,1.538,45.975,4.696,82.562,5.999c46.822,1.636,81.883,0.85,119.882-2.715c33.427-3.053,39.929-3.958,71.536-9.726
		c12.239-2.232,19.923-3.39,23.601-3.533h0.344c1.233-0.03,1.949,0.081,2.18,0.316c2.666,2.712-4.239,7.574-18.944,13.057
		c-10.624,3.96-10.624,4.476-5.876,31.507c10.24,56.827,14.48,79.498,15.492,83.571c0.625,2.434,1.755,9.454,2.543,15.722
		c1.699,13.912,0.282,20.981-4.571,22.114c-7.301,1.919-13.571-0.516-34.948-13.288c-25.055-14.987-105.685-61.414-118.471-68.199
		c-4.867-2.717-11.026-5.142-13.569-5.657c-5.997-1.131-16.513,2.656-28.669,10.239c-5.149,3.221-9.725,5.767-10.24,5.767
		c-0.505,0-4.636,2.261-9.099,5.087c-4.475,2.828-8.434,5.152-8.716,5.152c-0.395,0-6.046,3.219-12.552,7.181
		c-6.503,3.958-16.228,9.724-21.488,12.661c-5.262,2.937-16.794,9.613-25.617,14.703c-24.146,14.197-25.338,14.813-37.604,21.096
		c-13.18,6.616-18.147,7.132-22.508,2.547c-4.573-4.867-4.464-6.108,4.36-51.178c1.637-8.424,6.271-32.627,10.229-53.722
		c4.02-21.098,8.876-46.717,11.029-56.942c2.04-10.24,3.847-20.875,3.847-23.813c0-5.987,5.655-0.395-81.368-80.754
		c-27.548-25.443-50.45-47.218-50.955-48.348c-1.698-4.352-0.787-11.754,1.523-13.794c3.221-2.937,9.111-3.846,62.316-9.782
		c117.854-13.179,113.895-12.664,119.771-17.642c2.433-1.918,6.787-8.988,10.856-17.419c3.848-7.685,7.471-14.591,8.089-15.38
		c0.517-0.786,1.699-3.219,2.322-5.262c0.787-2.2,13.859-29.687,29.062-61.182c15.216-31.496,27.658-57.851,27.658-58.468
		c0-1.928,7.919-10.411,10.746-11.54c3.443-1.415,8.421-0.283,11.592,2.656c3.839,3.455,6.27,8.481,33.931,70.92
		c38.786,87.252,43.987,97.764,49.642,100.313c2.95,1.362,15.389,2.938,55.934,7.019c10.574,1.181,24.651,2.544,31.326,3.334
		c6.613,0.626,27.991,2.656,47.329,4.464C740.15,206.524,758.468,208.553,761.516,209.351z"/>
	<path fill="#FFCE00" d="M772.939,1.865v556h-556v-556H772.939 M478.31,27.048c-1.057,2.716-12.772,27.537-27.481,57.978
		c-13.445,27.846-28.229,58.82-29.145,61.383l-0.015,0.044l-0.016,0.046c-0.554,1.801-1.636,4.044-2.063,4.719
		c-1.118,1.595-5.828,10.834-8.232,15.637c-4.607,9.537-8.563,15.351-10.289,16.713l-0.026,0.021l-0.024,0.024
		c-0.192,0.161-0.373,0.314-0.549,0.469c-4.61,3.979-5.661,4.129-112.436,16.066l-5.706,0.639
		c-54.987,6.136-59.731,6.906-63.427,10.278c-3.277,2.892-3.89,11.381-2.073,16.043l0.021,0.046l0.02,0.044
		c0.233,0.518,0.548,1.227,15.793,15.7c9.824,9.328,22.483,21.157,35.636,33.312l14.406,13.3
		c33.586,31.002,50.443,46.561,58.793,54.846c7.721,7.66,7.665,8.539,7.569,10c-0.021,0.32-0.046,0.689-0.046,1.121
		c0,2.492-1.6,12.342-3.803,23.396c-1.954,9.281-6.163,31.387-9.877,50.891l-1.159,6.096c-3.775,20.121-8.439,44.529-10.225,53.703
		c-8.901,45.438-9.245,47.211-3.845,52.961c2.36,2.48,4.918,3.633,8.056,3.633c3.79,0,8.663-1.666,16.836-5.771
		c12.157-6.225,13.429-6.873,37.693-21.145l4.488-2.592c7.836-4.521,16.715-9.643,21.104-12.096
		c5.421-3.025,15.151-8.805,21.555-12.699c6.658-4.055,11.372-6.703,12.085-6.982c-0.017,0.008-0.108,0.045-0.264,0.066
		c0.659-0.131,2.301-0.902,9.473-5.436c4.409-2.793,7.852-4.633,8.462-4.834c-0.005,0-0.105,0.033-0.273,0.049
		c0.587-0.064,2.486-0.648,11.14-6.061c10.321-6.439,19.55-10.127,25.321-10.129c0.697,0,1.335,0.055,1.877,0.154
		c2.125,0.432,8.094,2.709,13.024,5.459c12.532,6.654,93.301,53.15,118.378,68.15c18.378,10.982,25.494,14.158,31.726,14.158
		c1.547,0,3.099-0.211,4.749-0.643c7.801-1.848,7.353-13.963,6.089-24.328c-0.812-6.463-1.954-13.482-2.59-15.957
		c-1.068-4.313-5.981-30.822-15.459-83.434c-2.188-12.465-3.513-19.984-2.828-23.695c0.497-2.713,1.943-3.527,7.422-5.572
		c19.487-7.268,20.418-11.447,20.722-12.822c0.289-1.301-0.076-2.561-1.061-3.553c-0.646-0.648-1.578-0.908-3.219-0.908
		c-0.14,0-0.283,0.002-0.385,0.006h-0.317l-8.575-0.123c-5.838-0.605-14.987-1.619-16.489-1.959
		c-2.043-0.467-3.723-0.963-4.884-1.342c0.199-1.877-0.199-4.633-1.209-8.826c-1.117-4.928-1.655-7.57-1.82-8.561
		c2.254-3.398,20.476-21.813,51.111-50.535c41.553-38.864,60.355-56.483,70.576-66.788c10.448-10.534,11.433-12.976,11.433-16.8
		c0-6.146-4.85-11.457-12.031-13.201c-4.02-1.053-30.03-3.719-41.038-4.813c-16.778-1.568-35.097-3.303-43.968-4.145l-3.313-0.317
		c-3.435-0.404-8.898-0.971-14.671-1.566c-5.666-0.584-11.525-1.191-16.684-1.767c-34.325-3.454-52.297-5.462-55.312-6.853
		c-4.929-2.219-10.831-14.28-48.619-99.289c-27.968-63.134-30.222-67.816-34.403-71.583c-2.565-2.378-6.181-3.8-9.664-3.8
		c-1.476,0-2.842,0.255-4.052,0.746c-2.361,0.95-6.078,4.812-7.161,5.972C479.107,24.319,478.426,26.214,478.31,27.048
		 M774.939-0.135h-560v560h560V-0.135L774.939-0.135z M328.158,544.127c-2.713,0-4.713-1.029-6.592-3.006
		c-4.573-4.865-4.465-6.107,4.36-51.18c1.637-8.422,6.27-32.625,10.229-53.719c4.019-21.098,8.877-46.717,11.028-56.945
		c2.039-10.24,3.847-20.871,3.847-23.811c0-5.988,5.655-0.396-81.368-80.752c-27.549-25.443-50.45-47.217-50.954-48.349
		c-1.697-4.353-0.787-11.754,1.524-13.794c3.221-2.937,9.109-3.846,62.314-9.783c117.854-13.178,113.896-12.663,119.773-17.641
		c2.434-1.918,6.784-8.989,10.855-17.42c3.847-7.684,7.472-14.592,8.088-15.378c0.517-0.787,1.7-3.223,2.322-5.261
		c0.789-2.201,13.856-29.687,29.063-61.183c15.217-31.496,27.66-57.851,27.66-58.468c0-1.928,7.917-10.41,10.744-11.54
		c0.998-0.412,2.124-0.611,3.299-0.611c2.879,0,6.042,1.176,8.292,3.262c3.842,3.454,6.271,8.482,33.934,70.92
		c38.785,87.254,43.988,97.766,49.642,100.313c2.949,1.363,15.387,2.938,55.934,7.015c10.575,1.185,24.649,2.546,31.323,3.336
		c6.616,0.627,27.992,2.656,47.332,4.466c19.346,1.929,37.666,3.957,40.712,4.754c6.281,1.525,10.521,6.108,10.521,11.249
		c0,5.937-1.806,7.695-81.368,82.106c-30.03,28.166-51.804,49.883-51.804,51.691c0,0.617,0.909,4.859,1.919,9.328
		c1.411,5.875,1.535,8.705,0.625,9.615c0,0,2.706,1.1,6.989,2.082c2.182,0.49,16.823,2.006,16.823,2.006l8.664,0.123h0.344
		c0.136-0.006,0.262-0.006,0.386-0.006c0.995,0,1.59,0.107,1.796,0.316c2.666,2.715-4.238,7.574-18.945,13.061
		c-10.623,3.957-10.623,4.473-5.876,31.502c10.242,56.83,14.481,79.5,15.492,83.572c0.625,2.436,1.755,9.453,2.544,15.723
		c1.699,13.912,0.281,20.982-4.571,22.113c-1.421,0.371-2.797,0.58-4.262,0.58c-6.05,0-13.469-3.578-30.689-13.867
		c-25.056-14.986-105.686-61.416-118.472-68.201c-4.867-2.715-11.024-5.141-13.57-5.658c-0.698-0.131-1.459-0.197-2.277-0.197
		c-6.194,0.002-15.649,3.736-26.39,10.438c-5.149,3.225-9.725,5.77-10.239,5.77c-0.505,0-4.635,2.26-9.1,5.084
		c-4.473,2.832-8.434,5.154-8.716,5.154c-0.395,0-6.046,3.217-12.552,7.178c-6.503,3.959-16.228,9.725-21.488,12.66
		c-5.261,2.939-16.793,9.615-25.618,14.705c-24.144,14.197-25.337,14.814-37.603,21.1
		C336.58,542.338,331.74,544.127,328.158,544.127L328.158,544.127z"/>
</g>
</svg>
