<?xml version="1.0" encoding="utf-8"?>
<!-- Generator: Adobe Illustrator 16.0.0, SVG Export Plug-In . SVG Version: 6.00 Build 0)  -->
<!DOCTYPE svg PUBLIC "-//W3C//DTD SVG 1.1//EN" "http://www.w3.org/Graphics/SVG/1.1/DTD/svg11.dtd">
<svg version="1.1" id="Layer_1" xmlns="http://www.w3.org/2000/svg" xmlns:xlink="http://www.w3.org/1999/xlink" x="0px" y="0px"
	 width="960px" height="560px" viewBox="0 0 960 560" enable-background="new 0 0 960 560" xml:space="preserve">
<g>
	<path fill="#FFFFFF" stroke="#005EAC" stroke-width="2" stroke-miterlimit="10" d="M432.247,3v176.088
		c0,61.011-15.309,116.614-45.928,166.867c-30.62,50.255-70.629,87.305-120.03,111.321
		c-43.823-52.075-65.733-112.005-65.733-179.787c0-45.245,10.13-87.589,30.334-126.914c20.203-39.327,47.978-71.938,83.32-97.835
		C349.552,26.789,388.88,10.228,432.247,3z M611.978,521.531c-41.376,22.766-85.939,34.147-133.632,34.147
		c-47.465,0-91.857-11.383-133.233-34.147c33.408-21.059,61.922-46.61,85.541-76.604c23.618-30.05,39.498-62.435,47.749-97.321
		c8.48,34.888,24.53,67.327,48.092,97.321C550.056,474.921,578.57,500.474,611.978,521.531z M758.302,277.49
		c0,67.782-21.911,127.712-65.734,179.73c-49.399-23.961-89.41-61.067-120.029-111.321
		c-30.618-50.255-45.928-105.857-45.928-166.868V3c43.311,7.285,82.638,23.847,118.036,49.741
		c35.344,25.896,63.117,58.507,83.321,97.834C748.172,189.902,758.302,232.244,758.302,277.49z"/>
</g>
<g>
	<path fill="#005EAC" d="M757.997,2v556H202.004V2H757.997 M760,0H200v560h560V0L760,0z"/>
</g>
</svg>
