<?xml version="1.0" encoding="utf-8"?>
<!-- Generator: Adobe Illustrator 16.0.0, SVG Export Plug-In . SVG Version: 6.00 Build 0)  -->
<!DOCTYPE svg PUBLIC "-//W3C//DTD SVG 1.1//EN" "http://www.w3.org/Graphics/SVG/1.1/DTD/svg11.dtd">
<svg version="1.1" id="Layer_1" xmlns="http://www.w3.org/2000/svg" xmlns:xlink="http://www.w3.org/1999/xlink" x="0px" y="0px"
	 width="960px" height="560px" viewBox="0 0 960 560" enable-background="new 0 0 960 560" xml:space="preserve">
<path fill="#FFFFFF" stroke="#E6162D" stroke-miterlimit="10" d="M435.2,473.619c-92.645,9.101-172.69-32.76-178.71-93.625
	c-6.02-60.795,64.26-117.6,157.01-126.77c92.681-9.17,172.69,32.726,178.711,93.59c6.02,60.83-64.261,117.6-156.976,126.771
	L435.2,473.619z M410.805,401.31c-8.96,14.35-28.141,20.58-42.631,14c-14.244-6.51-18.444-23.1-9.449-37.1
	c8.819-13.86,27.404-20.056,41.755-14C415.005,370.335,419.625,386.855,410.805,401.31z M440.381,363.405
	c-3.256,5.53-10.431,8.19-16.03,5.88c-5.53-2.239-7.28-8.399-4.13-13.895c3.22-5.391,10.149-8.05,15.645-5.845
	c5.601,2.029,7.561,8.295,4.48,13.895L440.381,363.405z M444.51,300.055c-44.101-11.479-93.976,10.5-113.155,49.35
	c-19.495,39.69-0.63,83.65,43.925,98.07c46.2,14.91,100.59-7.91,119.525-50.75C513.461,354.935,490.15,311.85,444.51,300.055z
	 M620.666,271.565c-7.91-2.38-13.301-3.989-9.205-14.35c8.96-22.505,9.869-41.896,0.175-55.755c-18.2-25.971-67.9-24.57-124.95-0.7
	c0,0-17.85,7.84-13.3-6.37c8.75-28.175,7.455-51.8-6.195-65.45C436.251,98,354,130.13,283.44,200.69
	C230.66,253.47,200,309.47,200,357.84c0,92.645,118.755,148.925,234.955,148.925c152.25,0,253.61-88.48,253.61-158.726
	c0-42.454-35.805-66.499-67.9-76.51L620.666,271.565z M665.29,153.055c-17.85-19.88-44.31-27.405-68.739-22.225
	c-9.94,2.1-16.275,11.899-14.141,21.875c2.101,9.939,11.9,16.345,21.875,14.175c11.971-2.521,24.851,1.155,33.67,10.85
	c8.75,9.73,11.096,22.96,7.351,34.545c-3.15,9.695,2.17,20.125,11.899,23.275c9.695,3.08,20.091-2.205,23.205-11.9
	c7.7-23.729,2.905-50.75-15.05-70.63L665.29,153.055z M721.78,102.06c-36.819-40.774-91.069-56.35-141.155-45.64
	c-11.55,2.45-18.97,13.859-16.449,25.444c2.449,11.551,13.824,18.971,25.41,16.45c35.63-7.524,74.199,3.5,100.31,32.48
	c26.11,28.979,33.18,68.495,22.05,103.109c-3.71,11.306,2.45,23.381,13.755,27.021c11.271,3.64,23.346-2.521,27.021-13.79V247.1
	c15.68-48.72,5.774-104.3-31.01-145.005L721.78,102.06z"/>
</svg>
