<?xml version="1.0" encoding="utf-8"?>
<!-- Generator: Adobe Illustrator 16.0.0, SVG Export Plug-In . SVG Version: 6.00 Build 0)  -->
<!DOCTYPE svg PUBLIC "-//W3C//DTD SVG 1.1//EN" "http://www.w3.org/Graphics/SVG/1.1/DTD/svg11.dtd">
<svg version="1.1" id="Layer_1" xmlns="http://www.w3.org/2000/svg" xmlns:xlink="http://www.w3.org/1999/xlink" x="0px" y="0px"
	 width="960px" height="560px" viewBox="0 0 960 560" enable-background="new 0 0 960 560" xml:space="preserve">
<path fill="#FFFFFF" stroke="#1DA1F2" stroke-width="2" stroke-miterlimit="10" d="M760.001,106.33
	c-20.647,9.1-42.697,15.295-65.975,18.095c23.695-14.245,41.93-36.75,50.505-63.563c-22.188,13.125-46.795,22.683-72.975,27.825
	c-20.931-22.33-50.75-36.26-83.861-36.26c-63.42,0-114.87,51.38-114.87,114.8c0,9.03,1.052,17.853,2.978,26.25
	C380.32,188.65,295.655,142.94,238.989,73.5c-9.94,16.902-15.54,36.645-15.54,57.75c0,39.897,20.3,75.005,51.1,95.62
	c-18.828-0.598-36.573-5.775-52.045-14.353v1.4c0,55.647,39.553,102.13,92.156,112.697c-9.66,2.592-19.81,3.99-30.272,3.99
	c-7.353,0-14.563-0.7-21.598-2.03c14.63,45.643,57.05,78.855,107.348,79.803c-39.343,30.8-88.9,49.14-142.696,49.14
	c-9.275,0-18.41-0.525-27.405-1.575c50.855,32.55,111.231,51.59,176.121,51.59c211.331,0,326.902-175,326.902-326.827
	c0-5.007-0.142-9.94-0.353-14.875c22.4-16.205,41.933-36.4,57.33-59.5H760.001L760.001,106.33z"/>
</svg>
