<?xml version="1.0" encoding="utf-8"?>
<!-- Generator: Adobe Illustrator 16.0.0, SVG Export Plug-In . SVG Version: 6.00 Build 0)  -->
<!DOCTYPE svg PUBLIC "-//W3C//DTD SVG 1.1//EN" "http://www.w3.org/Graphics/SVG/1.1/DTD/svg11.dtd">
<svg version="1.1" id="Layer_1" xmlns="http://www.w3.org/2000/svg" xmlns:xlink="http://www.w3.org/1999/xlink" x="0px" y="0px"
	 width="960px" height="560px" viewBox="0 0 960 560" enable-background="new 0 0 960 560" xml:space="preserve">
<path fill="#FFFFFF" stroke="#7BB32E" stroke-width="2" stroke-miterlimit="10" d="M749.26,297.5
	c-14.21-32.2-41.021-57.75-72.104-73.5c-54.95-27.825-123.27-27.65-178.01,0.7c-38.08,19.522-69.825,54.522-78.855,97.117
	c-7.455,31.36-0.77,65.104,15.855,92.4C460.89,455.35,505.62,481.6,552.1,490c33.705,6.854,68.53,2.8,101.255-6.65
	c19.6,7.63,37.1,19.95,56.175,29.05c-4.896-16.45-10.146-32.795-15.75-49c21.354-15.188,40.705-34.09,52.36-57.82
	c17.354-33.067,18.41-74.021,3.146-108.037L749.26,297.5z M517.73,76.65C459.525,43.89,387.005,38.955,324.39,61.6
	c-41.125,14.805-78.4,42.354-101.396,79.8c-20.854,33.853-28.7,76.021-18.62,114.73c10.08,42.938,39.9,78.925,76.09,102.97
	c-6.817,19.81-13.572,39.655-19.942,59.604c22.96-11.896,45.604-24.317,68.46-36.396c27.51,8.75,56.455,13.02,85.33,12.075
	c-7.525-22.058-9.313-45.854-5.888-68.88c5.495-31.99,22.758-61.25,46.69-82.95c40.25-37.66,97.302-53.55,151.55-49.7
	c-10.146-49.805-45.146-91.91-88.97-116.2L517.73,76.65L517.73,76.65z M558.12,309.75c-4.829,15.188-26.942,19.771-37.652,8.188
	c-11.802-10.71-7.218-33.104,8.26-37.87C545.87,272.825,565.645,292.6,558.12,309.75z M670.015,311.85
	c-5.95,13.72-26.425,16.87-36.54,6.3c-4.9-4.445-6.09-11.13-8.05-17.045c2.59-10.675,9.729-21.77,21.84-22.26
	C663.995,276.57,678.695,296.87,670.015,311.85z M503.1,161.28c0.175,22.4-29.75,36.4-46.55,21.21
	c-17.438-12.487-12.495-42.875,7.979-49.175c18.313-7.245,39.971,8.19,38.5,27.938L503.1,161.28z M361.7,166.95
	c-3.99,19.487-30.1,28.902-45.395,15.813c-17.71-12.46-12.74-43.396,8.05-49.7c20.37-7.84,43.505,12.853,37.38,33.888H361.7z"/>
</svg>
